<mxfile host="app.diagrams.net" modified="2024-12-04T14:56:49.918Z" agent="Mozilla/5.0 (Macintosh; Intel Mac OS X 10_15_7) AppleWebKit/537.36 (KHTML, like Gecko) Chrome/128.0.0.0 Safari/537.36 Edg/128.0.0.0" version="24.4.8" etag="bo47CyyvNBOU40PP_lBs" type="github">
  <diagram name="Page-1" id="OA3BzxSJInfQ96wxanXp">
    <mxGraphModel>
      <root>
        <mxCell id="0" />
        <mxCell id="1" parent="0" />
      </root>
    </mxGraphModel>
  </diagram>
</mxfile>
